<svg xmlns="http://www.w3.org/2000/svg" width="780" height="441" viewBox="0 0 780 441" fill="none"><rect width="780" height="440" transform="translate(0 0.5)" fill="#24E0C5"></rect><path d="M292.028 113.796H493.012C498.183 113.796 502.435 117.298 502.435 121.558V343.808C502.435 348.068 498.183 351.57 493.012 351.57H292.028C286.857 351.57 282.605 348.068 282.605 343.808V121.558C282.605 117.298 286.857 113.796 292.028 113.796Z" fill="#A1C2F8" stroke="#040404" stroke-miterlimit="10" stroke-linecap="round" stroke-linejoin="round"></path><path d="M292.248 92.935H492.791C498.161 92.935 502.514 97.2879 502.514 102.658V141.818H282.526V102.658C282.526 97.2879 286.879 92.935 292.248 92.935Z" fill="white" stroke="#040404"></path><path d="M309.043 132.01C317.269 132.01 323.937 125.341 323.937 117.116C323.937 108.89 317.269 102.221 309.043 102.221C300.817 102.221 294.149 108.89 294.149 117.116C294.149 125.341 300.817 132.01 309.043 132.01Z" fill="#FFBC00" stroke="#040404" stroke-miterlimit="10" stroke-linecap="round" stroke-linejoin="round"></path><path d="M396.704 164.592C393.495 164.989 389.273 163.981 383.772 160.997" stroke="#040404" stroke-miterlimit="10"></path><path d="M400.627 122.296C400.627 122.296 420.696 162.654 397.731 164.479C397.731 164.479 395.749 174.585 401.25 185.879C401.25 185.879 400.435 198.379 383.759 188.498C383.759 188.498 357.212 153.265 360.997 141.415C364.782 129.564 374.605 112.442 383.759 110.79C392.912 109.139 399.998 109.332 400.621 122.296" fill="#F2CDAE"></path><path d="M400.627 122.296C400.627 122.296 420.696 162.654 397.731 164.479C397.731 164.479 395.749 174.585 401.25 185.879C401.25 185.879 400.435 198.379 383.759 188.498C383.759 188.498 357.212 153.265 360.997 141.415C364.782 129.564 374.605 112.442 383.759 110.79C392.912 109.139 399.998 109.332 400.621 122.296" stroke="#040404" stroke-miterlimit="10"></path><path d="M372.438 155.42C372.438 155.42 384.554 161.906 383.394 170.818C382.234 179.731 361.485 177.573 361.485 177.573C344.179 174.835 332.716 169.805 332.716 155.42C332.988 146.647 341.053 146.627 347.078 134.836C353.103 123.045 359.108 102.952 385.866 102.952C404.77 102.952 410.252 122.303 410.252 122.303C410.252 122.303 405.917 126.984 402.623 128.974C402.623 128.974 399.792 117.521 397.068 113.927C397.068 113.927 397.008 119.862 396.796 122.296C396.62 124.268 396.237 125.896 395.759 127.23C394.87 129.712 392.63 128.514 391.991 125.957C390.647 120.574 385.866 119.436 385.866 119.436C385.866 119.436 388.332 123.974 384.554 133.709C380.776 143.444 370.071 144.418 370.071 144.418C370.071 144.418 365.471 140.214 364.073 144.418C362.674 148.623 370.277 157.827 373.677 154.823" fill="#040404"></path><path d="M372.438 155.42C372.438 155.42 384.554 161.906 383.394 170.818C382.234 179.731 361.485 177.573 361.485 177.573C344.179 174.835 332.716 169.805 332.716 155.42C332.988 146.647 341.053 146.627 347.078 134.836C353.103 123.045 359.108 102.952 385.866 102.952C404.77 102.952 410.252 122.303 410.252 122.303C410.252 122.303 405.917 126.984 402.623 128.974C402.623 128.974 399.792 117.521 397.068 113.927C397.068 113.927 397.008 119.862 396.796 122.296C396.62 124.268 396.237 125.896 395.759 127.23C394.87 129.712 392.63 128.514 391.991 125.957C390.647 120.574 385.866 119.436 385.866 119.436C385.866 119.436 388.332 123.974 384.554 133.709C380.776 143.444 370.071 144.418 370.071 144.418C370.071 144.418 365.471 140.214 364.073 144.418C362.674 148.623 370.277 157.827 373.677 154.823" stroke="#040404" stroke-miterlimit="10"></path><path d="M397.671 172.662C397.671 172.662 435.936 160.593 435.724 145.141C435.512 129.69 404.896 127.336 404.896 127.336L402.629 128.967C402.629 128.967 411.111 146.754 407.857 157.112C405.762 163.77 397.605 164.711 397.605 164.711L397.665 172.662H397.671Z" fill="#040404" stroke="#040404" stroke-miterlimit="10"></path><path d="M409.695 143.066C414.355 143.066 418.133 138.416 418.133 132.681C418.133 126.945 414.355 122.296 409.695 122.296C405.035 122.296 401.257 126.945 401.257 132.681C401.257 138.416 405.035 143.066 409.695 143.066Z" fill="#EC9AF1" stroke="#040404" stroke-miterlimit="10"></path><path d="M388.074 146.826C392.734 146.826 396.511 142.176 396.511 136.441C396.511 130.706 392.734 126.056 388.074 126.056C383.414 126.056 379.636 130.706 379.636 136.441C379.636 142.176 383.414 146.826 388.074 146.826Z" fill="#EC9AF1" stroke="#040404" stroke-miterlimit="10"></path><path d="M396.511 136.441C396.511 136.441 399.063 131.905 401.25 135.254" stroke="#040404" stroke-miterlimit="10"></path><path d="M454.276 203.657L456.782 169.777C456.782 169.777 447.933 163.603 447.217 157.469C446.502 151.335 450.956 148.019 453.839 146.826C456.722 145.632 465.266 150.447 466.187 153.066C467.109 155.685 466.645 169.366 466.645 169.366L471.735 199.022C472.756 204.977 467.937 210.514 461.932 209.937C459.499 209.705 456.464 206.622 454.276 203.657Z" fill="#F2CDAE" stroke="#040404" stroke-miterlimit="10"></path><path d="M436.791 146.567L441.1 150.699C441.55 151.169 442.299 151.388 443.062 151.335L443.446 151.309C444.321 151.209 445.222 151.501 445.773 152.191C447.728 155.055 452.898 162.251 456.974 165.818C457.63 166.468 458.711 166.548 459.453 166.117L460.64 165.5C460.978 165.361 461.382 165.069 461.515 164.751C462.005 164.028 462.602 162.602 462.403 160.195C462.303 159.32 461.76 158.623 460.971 158.292C460.54 158.205 460.136 157.847 459.997 157.509L454.356 150.122C454.104 149.83 453.972 149.492 453.992 149.226L453.594 147.29C453.521 146.793 453.229 146.395 452.818 146.037L452.162 145.387C451.552 144.85 451.181 143.954 451.513 143.165L452.142 140.546C452.295 139.962 452.222 139.465 451.884 138.948L451.837 138.835C451.698 138.497 451.493 138.318 451.247 138.026L448.735 136.043C448.126 135.506 447.158 135.38 446.369 135.698L435.737 140.44C435.399 140.579 435.108 140.824 434.862 141.189L434.08 142.164C433.166 143.457 433.63 145.228 435.28 145.738L436.022 145.957C436.228 146.136 436.433 146.315 436.791 146.561V146.567Z" fill="white" stroke="#040404" stroke-linecap="round" stroke-linejoin="round"></path><path d="M440.737 114.487L445.881 110.299C446.749 109.499 447.556 108.571 448.008 107.491L452.874 97.1522L470.857 130.2L462.439 131.853C461.624 132.041 460.854 132.351 460.085 132.668L455.114 135.445L449.887 138.328L439.96 137.022L431.904 128.245L432.779 121.627L436.822 117.287L440.744 114.487H440.737Z" fill="white" stroke="#040404" stroke-linecap="round" stroke-linejoin="round"></path><path d="M434.068 147.037C434.068 147.037 427.589 150.139 421.524 141.136C421.524 141.136 416.907 133.483 422.806 127.491L438.036 115.891C438.036 115.891 439.356 114.752 440.744 114.487C441.996 114.276 430.84 118.691 437.252 129.634C443.663 140.577 451.727 136.985 451.727 136.985C451.727 136.985 454.133 136.298 454.993 135.498C454.993 135.498 451.448 140.675 444.003 138.502L435.004 143.822L436.422 145.475L434.076 147.03L434.068 147.037Z" fill="#FFBC00" stroke="#040404" stroke-linecap="round" stroke-linejoin="round"></path><path d="M500.072 136.569C510.881 129.437 510.233 109.363 498.616 91.7407C486.999 74.1112 468.82 65.6058 458.003 72.7376C447.186 79.8694 447.842 99.9442 459.459 117.566C471.076 135.196 489.255 143.701 500.072 136.569Z" fill="white" stroke="#040404" stroke-linecap="round" stroke-linejoin="round"></path><path d="M497.454 132.675C506.295 126.842 505.269 109.68 495.161 94.3447C485.053 79.0094 469.695 71.304 460.854 77.1377C452.014 82.9715 453.04 100.133 463.147 115.468C473.255 130.804 488.613 138.509 497.454 132.675Z" fill="white" stroke="#040404" stroke-linecap="round" stroke-linejoin="round"></path><path d="M458.818 107.68L472.396 100.782C473.24 100.291 474.236 100.178 475.134 100.556C476.522 101.031 478.423 102.042 479.826 104.752C481.334 107.71 480.995 109.793 480.542 110.872C480.316 111.416 479.961 112.004 479.373 112.397L467.968 121.687C467.968 121.687 462.627 116.268 458.818 107.687V107.68Z" stroke="#040404" stroke-linecap="round" stroke-linejoin="round"></path><path d="M477.925 110.827C479.132 110.027 478.958 107.627 477.532 105.469C476.107 103.303 473.972 102.201 472.765 102.993C471.558 103.793 471.732 106.193 473.157 108.352C474.583 110.518 476.718 111.619 477.925 110.827Z" fill="#931847" stroke="#040404" stroke-miterlimit="10"></path><path d="M466.616 156.021C466.347 153.155 466.048 150.778 465.167 148.577C464.285 146.375 462.741 144.346 460.587 143.371C458.472 142.416 455.98 142.568 453.799 143.371C451.619 144.173 449.71 145.559 447.927 147.051C447.615 147.317 447.29 147.595 447.144 147.98C446.999 148.364 447.098 148.868 447.463 149.047C447.714 149.173 448.019 149.114 448.291 149.047C450.286 148.603 451.844 147.27 453.839 146.826C452.772 147.39 450.008 150.354 451.797 151.183C454.025 152.217 451.406 153.325 452.281 154.22C454.025 156.01 460.587 157.463 464.08 157.463" fill="#F2CDAE"></path><path d="M466.616 156.021C466.347 153.155 466.048 150.778 465.167 148.577C464.285 146.375 462.741 144.346 460.587 143.371C458.472 142.416 455.98 142.568 453.799 143.371C451.619 144.173 449.71 145.559 447.927 147.051C447.615 147.317 447.29 147.595 447.144 147.98C446.999 148.364 447.098 148.868 447.463 149.047C447.714 149.173 448.019 149.114 448.291 149.047C450.286 148.603 451.844 147.27 453.839 146.826C452.772 147.39 450.008 150.354 451.797 151.183C454.025 152.217 451.406 153.325 452.281 154.22C454.025 156.01 460.587 157.463 464.08 157.463" stroke="#040404" stroke-miterlimit="10" stroke-linecap="round"></path><path d="M450.644 164.003C450.644 164.003 442.982 155.495 444.506 152.836C446.03 150.177 451.075 149.374 451.274 151.012C451.472 152.65 448.241 156.27 448.241 156.27" fill="#F2CDAE"></path><path d="M450.644 164.003C450.644 164.003 442.982 155.495 444.506 152.836C446.03 150.177 451.075 149.374 451.274 151.012C451.472 152.65 448.241 156.27 448.241 156.27" stroke="#040404" stroke-miterlimit="10" stroke-linecap="round"></path><path d="M376.613 178.312C376.613 178.312 391.812 194.433 400.435 184.075C400.435 184.075 423.455 184.559 428.97 187.437C434.484 190.315 449.63 209.029 449.63 209.029C449.63 209.029 445.487 195.182 447.085 192.304C448.682 189.426 455.31 189.718 455.31 189.718C455.31 189.718 453.846 202.225 471.742 199.029L470.82 193.67C470.82 193.67 482.731 197.483 483.209 202.278C483.686 207.073 477.687 209.984 478.41 209.984C479.132 209.984 492.674 238.42 478.337 252.186C465.319 264.693 449.63 244.454 449.63 244.454L489.222 306.002C489.222 306.002 413.249 374.266 325.981 345.75L339.91 249.971C339.91 249.971 338.044 195.733 344.327 184.274C350.611 172.814 376.607 178.312 376.607 178.312H376.613Z" fill="#205BC3" stroke="#040404" stroke-miterlimit="10"></path><path d="M457.781 243.15C450.742 235.875 447.368 225.219 448.939 215.218C446.951 220 446.142 226.386 446.871 231.512" stroke="#040404" stroke-miterlimit="10" stroke-linecap="round"></path><path d="M388.226 186.518C388.226 186.518 376.706 178.61 376.879 179.174C379.384 187.424 410.068 241.941 374.455 293.825L431.893 293.825L426.007 248.227C426.007 248.227 434.557 230.004 428.38 216.861C422.202 203.717 400.435 184.075 400.435 184.075C400.435 184.075 395.49 188.308 388.226 186.518Z" fill="#EBF9EB" stroke="#040404" stroke-miterlimit="10"></path><path d="M356.152 177.556C356.152 177.556 333.755 177.165 328.228 192.881L302.198 205.209C302.198 205.209 264.875 252.923 281.088 274.548C297.3 296.173 343.453 270.761 360.633 230.76" fill="#205BC3"></path><path d="M356.152 177.556C356.152 177.556 333.755 177.165 328.228 192.881L302.198 205.209C302.198 205.209 264.875 252.923 281.088 274.548C297.3 296.173 343.453 270.761 360.633 230.76" stroke="#040404" stroke-miterlimit="10" stroke-linecap="round"></path><path d="M308.541 205.748L307.849 208.236C307.849 208.236 315.84 214.527 324.029 208.734L325.668 199.668C325.668 199.668 326.672 199.001 327.052 194.156C327.432 189.311 324.665 177.451 322.832 176.116C321 174.782 314.693 176.815 314.693 176.815C314.693 176.815 308.71 148.493 304.633 151.392C299.791 154.841 307.806 176.783 307.806 176.783C307.806 176.783 292.611 157.74 290.274 159.58C286.114 162.854 301.156 179.147 301.156 179.147C301.156 179.147 298.956 177.918 296.787 180.275C294.618 182.632 297.454 183.636 296.12 185.307C294.786 186.979 293.284 187.147 293.783 190.988C294.281 194.829 302.465 204.688 306.809 205.523C311.153 206.359 316.326 204.688 316.326 204.688" fill="#F2CDAE"></path><path d="M308.541 205.748L307.849 208.236C307.849 208.236 315.84 214.527 324.029 208.734L325.668 199.668C325.668 199.668 326.672 199.001 327.052 194.156C327.432 189.311 324.665 177.451 322.832 176.116C321 174.782 314.693 176.815 314.693 176.815C314.693 176.815 308.71 148.493 304.633 151.392C299.791 154.841 307.806 176.783 307.806 176.783C307.806 176.783 292.611 157.74 290.274 159.58C286.114 162.854 301.156 179.147 301.156 179.147C301.156 179.147 298.956 177.918 296.787 180.275C294.618 182.632 297.454 183.636 296.12 185.307C294.786 186.979 293.284 187.147 293.783 190.988C294.281 194.829 302.465 204.688 306.809 205.523C311.153 206.359 316.326 204.688 316.326 204.688" stroke="#040404" stroke-miterlimit="10"></path><path d="M313.646 178.168C313.646 178.168 305.556 182.165 306.852 184.965C308.148 187.764 318.837 183.069 318.837 183.069" fill="#F2CDAE"></path><path d="M313.646 178.168C313.646 178.168 305.556 182.165 306.852 184.965C308.148 187.764 318.837 183.069 318.837 183.069" stroke="#040404" stroke-miterlimit="10" stroke-linecap="round"></path><path d="M297.267 191.157C297.666 191.256 305.176 195.652 306.709 195.353C308.242 195.054 309.009 191.356 301.985 186.661" fill="#F2CDAE"></path><path d="M297.267 191.157C297.666 191.256 305.176 195.652 306.709 195.353C308.242 195.054 309.009 191.356 301.985 186.661" stroke="#040404" stroke-miterlimit="10" stroke-linecap="round"></path><path d="M307.07 191.562C307.07 191.562 313.845 194.754 310.847 186.661Z" fill="#F2CDAE"></path><path d="M307.07 191.562C307.07 191.562 313.845 194.754 310.847 186.661" stroke="#040404" stroke-miterlimit="10" stroke-linecap="round"></path><path d="M312.773 190.458C313.82 190.945 321.86 194.437 320.022 200.834Z" fill="#F2CDAE"></path><path d="M312.773 190.458C313.82 190.945 321.86 194.437 320.022 200.834" stroke="#040404" stroke-miterlimit="10" stroke-linecap="round"></path><path d="M327.087 203.299L329.061 206.042C330.885 208.574 331.679 211.693 331.232 214.782C329.862 224.245 326.505 245.596 322.275 259.455" stroke="#040404" stroke-miterlimit="10" stroke-linecap="round"></path><path d="M497.263 75.1065L503.184 61.8266" stroke="#040404" stroke-miterlimit="10" stroke-linecap="round"></path><path d="M515.723 99.3625L530.248 98.689" stroke="#040404" stroke-miterlimit="10" stroke-linecap="round"></path><path d="M504.782 88.1816L534.035 71.2413" stroke="#040404" stroke-miterlimit="10" stroke-linecap="round"></path><path d="M351.945 340.299C353.239 322.696 367.067 301.891 374.077 293.37L431.772 294.006L437.045 340.299H351.945Z" fill="#EC9AF1" stroke="#040404"></path><path d="M492.791 359.928L292.248 359.928C286.879 359.928 282.526 355.575 282.526 350.206L282.526 326.325L502.514 326.325L502.514 350.206C502.514 355.575 498.161 359.928 492.791 359.928Z" fill="white" stroke="#040404"></path><path d="M331.096 343.323C331.096 344.362 330.865 345.401 330.634 346.44L330.749 350.712L327.055 350.019C323.244 352.098 318.511 350.828 316.432 347.018C315.74 345.863 315.393 344.477 315.393 343.092C315.393 338.704 318.972 335.241 323.36 335.241C327.516 335.472 331.096 339.051 331.096 343.323Z" fill="white" stroke="#040404" stroke-linecap="round" stroke-linejoin="round"></path><path d="M305.81 344.247L298.998 351.174L292.07 344.247C289.992 342.515 289.761 339.513 291.493 337.434C293.225 335.356 296.227 335.125 298.305 336.857C298.536 337.088 298.767 337.204 298.882 337.434C300.614 335.356 303.616 335.125 305.695 336.742C306.849 337.665 307.426 339.051 307.426 340.436C307.542 341.937 306.965 343.323 305.81 344.247Z" fill="#EC9AF1" stroke="#040404" stroke-linecap="round" stroke-linejoin="round"></path><path d="M479.691 336.511H491.93V350.943L485.811 345.747L479.46 350.481C479.576 350.481 479.691 336.973 479.691 336.511Z" fill="white" stroke="#040404" stroke-linecap="round" stroke-linejoin="round"></path><path d="M345.163 350.943H343.503V339.804L341.363 342.064L340.363 341.044L343.703 337.604H345.163V350.943ZM348.04 349.043L349.06 347.943C349.94 349.063 351.1 349.703 352.739 349.703C354.559 349.703 355.819 348.463 355.819 346.843C355.819 345.084 354.559 343.964 352.759 343.964C351.58 343.964 350.58 344.344 349.68 345.223L348.46 344.804V337.604H356.619V339.084H350.12V343.724C350.76 343.084 351.9 342.524 353.239 342.524C355.459 342.524 357.479 344.044 357.479 346.783C357.479 349.503 355.419 351.183 352.739 351.183C350.48 351.183 349.04 350.363 348.04 349.043ZM359.536 344.284C359.536 341.024 360.976 337.404 364.636 337.404C368.275 337.404 369.735 341.024 369.735 344.284C369.735 347.523 368.275 351.183 364.636 351.183C360.976 351.183 359.536 347.523 359.536 344.284ZM368.035 344.284C368.035 341.624 367.175 338.884 364.636 338.884C362.096 338.884 361.236 341.624 361.236 344.284C361.236 346.943 362.096 349.703 364.636 349.703C367.175 349.703 368.035 346.943 368.035 344.284ZM371.781 344.284C371.781 341.024 373.221 337.404 376.881 337.404C380.521 337.404 381.981 341.024 381.981 344.284C381.981 347.523 380.521 351.183 376.881 351.183C373.221 351.183 371.781 347.523 371.781 344.284ZM380.281 344.284C380.281 341.624 379.421 338.884 376.881 338.884C374.341 338.884 373.481 341.624 373.481 344.284C373.481 346.943 374.341 349.703 376.881 349.703C379.421 349.703 380.281 346.943 380.281 344.284Z" fill="#040404"></path><path d="M235.896 168.425C248.464 168.425 258.652 158.236 258.652 145.668C258.652 133.1 248.464 122.912 235.896 122.912C223.328 122.912 213.14 133.1 213.14 145.668C213.14 158.236 223.328 168.425 235.896 168.425Z" fill="#CE3665" stroke="#040404" stroke-miterlimit="10"></path><path d="M235.896 137.757C232.981 134.841 228.251 134.841 225.336 137.757C222.42 140.672 222.42 145.401 225.336 148.317L235.896 158.877L246.456 148.317C249.372 145.401 249.372 140.672 246.456 137.757C243.541 134.841 238.818 134.841 235.896 137.757Z" fill="white" stroke="#040404" stroke-miterlimit="10"></path><path d="M562.386 301.772C580.272 301.772 594.772 287.272 594.772 269.386C594.772 251.5 580.272 237 562.386 237C544.5 237 530 251.5 530 269.386C530 287.272 544.5 301.772 562.386 301.772Z" fill="#CE3665" stroke="#040404" stroke-miterlimit="10"></path><path d="M562.386 258.126C558.237 253.977 551.506 253.977 547.357 258.126C543.208 262.276 543.208 269.006 547.357 273.155L562.386 288.184L577.415 273.155C581.564 269.006 581.564 262.276 577.415 258.126C573.266 253.977 566.545 253.977 562.386 258.126Z" fill="white" stroke="#040404" stroke-miterlimit="10"></path><path d="M137.155 237.589C148.287 237.589 157.311 228.565 157.311 217.434C157.311 206.302 148.287 197.278 137.155 197.278C126.024 197.278 117 206.302 117 217.434C117 228.565 126.024 237.589 137.155 237.589Z" fill="#205BC3" stroke="#040404" stroke-miterlimit="10"></path><path d="M147.639 219.612L146.958 219.816L147.434 220.429C147.639 220.702 147.775 221.042 147.775 221.383C147.775 222.132 147.23 222.813 146.481 222.881L145.8 223.017L146.141 223.63C146.277 223.834 146.345 224.106 146.345 224.311C146.345 225.128 145.732 225.809 144.915 225.877H135.995C135.995 225.877 134.905 225.877 134.088 225.196C133.884 225.06 133.748 224.923 133.612 224.855L133.407 224.787V216.48L134.361 215.663L137.493 209.807C137.629 209.603 137.765 209.33 137.765 209.058C137.833 208.785 137.833 208.513 137.833 208.241L137.561 204.972C137.765 204.836 138.038 204.768 138.31 204.768C139.672 204.768 140.829 206.947 140.829 208.717C140.829 208.99 140.829 209.194 140.761 209.466L140.217 213.007H147.026C147.434 213.007 147.911 213.211 148.183 213.484C148.456 213.756 148.66 214.165 148.66 214.573C148.66 215.05 148.456 215.527 148.047 215.799L147.434 216.276L148.115 216.684C148.592 216.957 148.932 217.501 148.932 218.046C148.728 218.795 148.252 219.408 147.639 219.612Z" fill="white" stroke="#162323" stroke-miterlimit="10"></path><path d="M127.893 215.188H132.864C133.204 215.188 133.408 215.461 133.408 215.733V225.402C133.408 225.743 133.136 225.947 132.864 225.947H127.893C127.552 225.947 127.348 225.674 127.348 225.402V215.733C127.348 215.392 127.621 215.188 127.893 215.188Z" fill="white" stroke="#162323" stroke-miterlimit="10"></path><path d="M568.047 140.235H526.967C524.587 140.235 522.664 142.166 522.664 144.538V170.987C522.664 173.368 524.595 175.291 526.967 175.291H530.813V182.492L538.014 175.291H568.047C570.427 175.291 572.35 173.359 572.35 170.987V144.538C572.35 142.166 570.436 140.235 568.055 140.235H568.047Z" fill="white" stroke="#040404" stroke-linecap="round" stroke-linejoin="round"></path><path d="M557.212 160.693C555.761 160.693 554.586 159.518 554.586 158.067C554.586 156.617 555.761 155.441 557.212 155.441C558.662 155.441 559.838 156.617 559.838 158.067C559.838 159.518 558.662 160.693 557.212 160.693Z" fill="#6C2277" stroke="#040404" stroke-linecap="round" stroke-linejoin="round"></path><path d="M547.562 160.693C546.111 160.693 544.936 159.518 544.936 158.067C544.936 156.617 546.111 155.441 547.562 155.441C549.012 155.441 550.188 156.617 550.188 158.067C550.188 159.518 549.012 160.693 547.562 160.693Z" fill="#6C2277" stroke="#040404" stroke-linecap="round" stroke-linejoin="round"></path><path d="M537.906 160.693C536.455 160.693 535.279 159.518 535.279 158.067C535.279 156.617 536.455 155.441 537.906 155.441C539.356 155.441 540.532 156.617 540.532 158.067C540.532 159.518 539.356 160.693 537.906 160.693Z" fill="#6C2277" stroke="#040404" stroke-linecap="round" stroke-linejoin="round"></path><path d="M641.33 216.661C664.157 216.661 682.661 198.157 682.661 175.33C682.661 152.504 664.157 134 641.33 134C618.504 134 600 152.504 600 175.33C600 198.157 618.504 216.661 641.33 216.661Z" fill="white" stroke="#040404" stroke-linecap="round" stroke-linejoin="round"></path><path d="M641.316 207.432C659.009 207.432 673.351 193.089 673.351 175.396C673.351 157.703 659.009 143.361 641.316 143.361C623.623 143.361 609.28 157.703 609.28 175.396C609.28 193.089 623.623 207.432 641.316 207.432Z" fill="#EC9AF1" stroke="#040404" stroke-linecap="round" stroke-linejoin="round"></path><path d="M641.316 162.944C644.429 162.944 646.957 165.078 646.957 167.702C646.957 168.31 647.199 168.894 647.629 169.324C648.06 169.754 648.643 169.996 649.252 169.996C649.86 169.996 650.444 169.754 650.874 169.324C651.305 168.894 651.546 168.31 651.546 167.702C651.546 163.273 648.148 159.568 643.61 158.611V155.9C643.61 155.292 643.369 154.708 642.938 154.278C642.508 153.847 641.924 153.606 641.316 153.606C640.707 153.606 640.124 153.847 639.693 154.278C639.263 154.708 639.021 155.292 639.021 155.9V158.619C634.491 159.576 631.093 163.273 631.093 167.702C631.059 169.67 631.664 171.596 632.819 173.19C633.973 174.785 635.614 175.961 637.494 176.543L643.698 178.604C644.668 178.875 645.517 179.466 646.109 180.28C646.7 181.095 646.999 182.085 646.957 183.091C646.957 185.722 644.429 187.848 641.316 187.848C638.203 187.848 635.682 185.714 635.682 183.091C635.682 182.79 635.623 182.491 635.507 182.213C635.392 181.934 635.223 181.681 635.01 181.468C634.797 181.255 634.544 181.086 634.266 180.971C633.987 180.856 633.689 180.796 633.387 180.796C633.086 180.796 632.788 180.856 632.509 180.971C632.231 181.086 631.978 181.255 631.765 181.468C631.552 181.681 631.383 181.934 631.268 182.213C631.152 182.491 631.093 182.79 631.093 183.091C631.093 187.526 634.491 191.224 639.021 192.181V194.9C639.021 195.201 639.081 195.499 639.196 195.778C639.311 196.056 639.48 196.309 639.693 196.522C639.907 196.735 640.159 196.904 640.438 197.019C640.716 197.135 641.015 197.194 641.316 197.194C641.617 197.194 641.916 197.135 642.194 197.019C642.472 196.904 642.725 196.735 642.938 196.522C643.151 196.309 643.32 196.056 643.436 195.778C643.551 195.499 643.61 195.201 643.61 194.9V192.181C648.148 191.224 651.546 187.526 651.546 183.091C651.578 181.123 650.972 179.198 649.818 177.604C648.664 176.01 647.024 174.833 645.145 174.249L638.941 172.196C637.971 171.923 637.121 171.331 636.53 170.515C635.938 169.7 635.639 168.708 635.682 167.702C635.682 165.1 638.21 162.944 641.316 162.944Z" fill="white" stroke="#040404" stroke-linecap="round" stroke-linejoin="round"></path><path d="M285.624 318.717C302.065 318.717 315.393 305.389 315.393 288.948C315.393 272.506 302.065 259.178 285.624 259.178C269.182 259.178 255.854 272.506 255.854 288.948C255.854 305.389 269.182 318.717 285.624 318.717Z" fill="#205BC3" stroke="#040404" stroke-miterlimit="10"></path><path d="M301.107 292.165L300.101 292.467L300.805 293.372C301.107 293.775 301.308 294.277 301.308 294.78C301.308 295.887 300.504 296.892 299.397 296.993L298.392 297.194L298.895 298.099C299.096 298.401 299.196 298.803 299.196 299.105C299.196 300.312 298.291 301.318 297.084 301.418H283.909C283.909 301.418 282.3 301.418 281.093 300.412C280.791 300.211 280.59 300.01 280.389 299.91L280.087 299.809V287.539L281.495 286.332L286.122 277.683C286.323 277.381 286.524 276.979 286.524 276.577C286.625 276.174 286.625 275.772 286.625 275.37L286.222 270.542C286.524 270.341 286.926 270.24 287.329 270.24C289.34 270.24 291.05 273.459 291.05 276.074C291.05 276.476 291.05 276.778 290.949 277.18L290.145 282.41H300.202C300.805 282.41 301.509 282.711 301.912 283.114C302.314 283.516 302.616 284.12 302.616 284.723C302.616 285.427 302.314 286.131 301.711 286.533L300.805 287.237L301.811 287.841C302.515 288.243 303.018 289.048 303.018 289.852C302.716 290.959 302.012 291.864 301.107 292.165Z" fill="white" stroke="#162323" stroke-miterlimit="10"></path><path d="M271.943 285.631H279.284C279.787 285.631 280.089 286.033 280.089 286.436V300.717C280.089 301.22 279.687 301.522 279.284 301.522H271.943C271.44 301.522 271.138 301.119 271.138 300.717V286.436C271.138 285.933 271.54 285.631 271.943 285.631Z" fill="white" stroke="#162323" stroke-miterlimit="10"></path><path d="M282.605 322.839C303.875 322.839 321.117 305.597 321.117 284.327C321.117 263.057 303.875 245.815 282.605 245.815C261.335 245.815 244.093 263.057 244.093 284.327C244.093 305.597 261.335 322.839 282.605 322.839Z" fill="white" stroke="#040404" stroke-linecap="round" stroke-linejoin="round"></path><path d="M282.605 309.82C296.684 309.82 308.098 298.406 308.098 284.327C308.098 270.248 296.684 258.834 282.605 258.834C268.525 258.834 257.112 270.248 257.112 284.327C257.112 298.406 268.525 309.82 282.605 309.82Z" fill="#FFBC00" stroke="#040404" stroke-linecap="round" stroke-linejoin="round"></path><path d="M282.605 295.896C288.994 295.896 294.174 290.716 294.174 284.327C294.174 277.938 288.994 272.758 282.605 272.758C276.216 272.758 271.036 277.938 271.036 284.327C271.036 290.716 276.216 295.896 282.605 295.896Z" fill="white" stroke="#040404" stroke-linecap="round" stroke-linejoin="round"></path><path d="M282.843 300.199V284.014H266.658" stroke="#040404" stroke-linecap="round" stroke-linejoin="round"></path><path d="M282.496 284.361L246.633 320.224" stroke="#040404" stroke-linecap="round" stroke-linejoin="round"></path></svg>